<?xml version="1.0" encoding="UTF-8" standalone="no"?>
<!DOCTYPE svg PUBLIC "-//W3C//DTD SVG 1.1//EN" "http://www.w3.org/Graphics/SVG/1.1/DTD/svg11.dtd">
<svg width="100%" height="100%" viewBox="0 0 993 1544" version="1.1" xmlns="http://www.w3.org/2000/svg" xmlns:xlink="http://www.w3.org/1999/xlink" xml:space="preserve" xmlns:serif="http://www.serif.com/" style="fill-rule:evenodd;clip-rule:evenodd;stroke-linejoin:round;stroke-miterlimit:2;">
    <g transform="matrix(1,0,0,1,-82.5666,-13.0194)">
        <g transform="matrix(0.937132,0,0,0.937132,-53.3339,365.905)">
            <path d="M1182.11,348.288C1182.11,348.288 1198.11,624.391 1198.11,762.442C1198.11,900.493 1182.11,1176.6 1182.11,1176.6L1088.1,1270.6L259.797,1270.6L165.791,1176.6C165.791,1176.6 150.791,900.493 150.791,762.442C150.791,624.391 165.791,348.288 165.791,348.288L259.797,254.282L673.951,214.282L1088.1,254.282L1182.11,348.288Z" style="fill:white;"/>
        </g>
        <g transform="matrix(0.937132,0,0,0.937132,-31.2367,227.03)">
            <path d="M194.051,1144.43L133.645,1144.43C130.282,1063.81 127.212,973.091 127.212,910.633C127.212,772.582 142.212,496.48 142.212,496.48L236.218,402.474L650.371,362.474L825.227,379.362L825.227,97.988C825.227,1.758 747.101,-76.368 650.871,-76.368C554.642,-76.368 476.515,1.758 476.515,97.988L476.515,206.623L437.952,292.827L476.515,292.827L476.515,350.496L324.515,365.177L324.515,97.988C324.515,-82.133 470.751,-228.368 650.871,-228.368C830.992,-228.368 977.227,-82.133 977.227,97.988L977.227,394.042L1064.53,402.474L1158.53,496.48C1158.53,496.48 1174.53,772.582 1174.53,910.633C1174.53,973.091 1171.26,1063.81 1167.67,1144.43L1003.13,1144.43C1024.83,1133.5 1042.58,1118.62 1056.4,1099.82C1071.73,1078.97 1080.56,1055.16 1082.84,1028.36L1083.86,1016.28L981.702,1017.5L980.146,1026.53C977.4,1042.45 971.316,1054.9 961.429,1063.62C951.736,1072.17 938.637,1075.82 922.35,1075.28C913.3,1074.94 906.002,1072.58 900.667,1067.61C891.792,1059.35 888.48,1045.04 888.883,1025.23L888.885,1025.12C888.885,1011.9 891.058,990.051 895.319,959.434L895.32,959.425C903.786,897.871 924.988,865.912 963.717,867.192C977.456,867.704 987.737,870.973 994.1,878.226C1000.84,885.906 1003.26,898.901 1003,916.822L1002.83,927.955L1108.14,928.264L1107.57,916.69C1105.48,874.174 1092.06,840.928 1067.92,816.708C1043.67,792.365 1010.81,779.541 969.132,778.841C941.092,778.321 915.249,784.203 891.606,796.413C868.082,808.564 847.608,826.775 830.288,851.161C813.276,875.112 800.958,903.232 793.426,935.562C785.983,967.506 783.055,997.03 784.556,1024.13C786.644,1066.3 799.35,1099.6 822.089,1124.25C829.385,1132.16 837.523,1138.89 846.511,1144.43L758.9,1144.43L758.9,1141.63L714.039,1008.42C734.758,998.393 751.173,985.409 763.385,969.609C777.53,951.309 785.749,928.252 787.694,900.317C790.226,864.139 779.125,835.714 754.976,814.821C731.708,794.69 698.689,784.17 655.641,784.167L521.886,783.907L459.488,1144.43L299.211,1144.43L321.213,1018.08L454.174,1018.08L469.387,930.691L336.414,930.691L346.652,871.558C346.652,871.558 492.93,871.558 492.93,871.558L508.129,783.925L256.445,783.925L194.051,1144.43ZM647.009,1144.43L564.654,1144.43L583.978,1034.07L612.655,1034.07L647.009,1144.43ZM598.946,946.563L612.065,871.598L658.712,871.799C665.692,872.171 671.316,873.74 675.394,877.1C679.24,880.269 681.466,884.981 682.563,890.978C684.024,899.678 682.931,908.613 679.473,917.856C676.12,926.819 670.562,933.895 662.76,939.054C654.738,944.357 645.265,946.904 634.4,946.917C634.365,946.917 598.946,946.563 598.946,946.563ZM1180.31,1179.86C1176.37,1261.23 1172.59,1324.79 1172.59,1324.79L1076.03,1418.79L225.233,1418.79L128.675,1324.79C128.675,1324.79 125.128,1261.23 121.438,1179.86L1180.31,1179.86Z"/>
        </g>
    </g>
</svg>
